<?xml version="1.0" standalone="no"?>
<!DOCTYPE svg PUBLIC "-//W3C//DTD SVG 20010904//EN"
 "http://www.w3.org/TR/2001/REC-SVG-20010904/DTD/svg10.dtd">
<svg version="1.0" xmlns="http://www.w3.org/2000/svg"
 width="1504.000000pt" height="1504.000000pt" viewBox="0 0 1504.000000 1504.000000"
 preserveAspectRatio="xMidYMid meet">
<metadata>
Created by potrace 1.11, written by Peter Selinger 2001-2013
</metadata>
<g transform="translate(0.000000,1504.000000) scale(0.100000,-0.100000)"
fill="#000000" stroke="none">
<path d="M7357 15024 c-3 -3 -28 -8 -102 -19 -22 -3 -61 -12 -87 -20 -27 -8
-48 -11 -48 -8 0 3 -6 1 -12 -4 -7 -6 -31 -16 -53 -23 -80 -25 -272 -126 -322
-170 -7 -5 -15 -10 -17 -10 -16 0 -209 -189 -251 -245 -17 -22 -32 -42 -35
-45 -4 -3 -17 -23 -30 -45 -13 -22 -27 -42 -31 -45 -3 -3 -9 -15 -13 -27 -4
-13 -12 -23 -17 -23 -5 0 -9 -4 -9 -10 0 -5 -14 -39 -30 -74 -17 -36 -33 -74
-35 -85 -2 -11 -8 -28 -13 -38 -15 -27 -48 -156 -58 -223 -17 -120 -18 -340
-1 -410 2 -8 7 -37 12 -65 4 -27 10 -54 13 -60 4 -5 8 -19 9 -29 9 -54 95
-257 124 -293 8 -9 13 -19 13 -22 -2 -6 58 -100 86 -135 61 -77 187 -206 201
-206 4 0 9 -4 11 -8 4 -10 102 -83 148 -111 65 -38 155 -82 210 -102 30 -11
64 -24 75 -29 17 -7 53 -17 77 -20 4 -1 22 -6 40 -11 138 -42 403 -43 578 -3
36 9 74 17 85 20 23 4 55 17 180 70 170 73 352 212 471 361 22 26 45 54 51 61
7 7 25 34 40 60 15 26 30 49 33 52 11 9 87 174 108 235 35 101 47 150 68 295
8 56 5 259 -5 315 -5 33 -12 74 -15 90 -28 163 -122 375 -234 525 -85 115
-304 320 -341 320 -6 0 -11 5 -11 10 0 6 -6 10 -14 10 -8 0 -16 3 -18 8 -3 7
-159 85 -203 102 -48 19 -113 39 -145 46 -47 10 -50 11 -52 14 -4 2 -24 6 -83
15 -49 7 -342 15 -348 9z"/>
<path d="M3944 11221 c-2 -2 -4 -420 -4 -928 l0 -923 1222 0 c671 0 1223 -2
1226 -4 2 -3 4 -2111 4 -4685 l1 -4681 1132 0 1132 0 1 4667 c0 2568 1 4676 1
4686 1 16 66 17 1226 17 l1225 0 0 928 0 927 -3581 0 c-1969 0 -3582 -2 -3585
-4z"/>
</g>
</svg>
