<svg xmlns="http://www.w3.org/2000/svg" viewBox="0 0 133.91 133.92"><defs><style>.cls-1{fill:red;}</style></defs><title>Asset 6</title><g id="Layer_2" data-name="Layer 2"><g id="Layer_1-2" data-name="Layer 1"><path class="cls-1" d="M33.25,133.92a33.23,33.23,0,0,1-12.15-2.3,5.16,5.16,0,0,1-1.76-8.44l14.23-14.24a.45.45,0,0,0,.14-.32.45.45,0,0,0-.14-.33l-7.95-8a.46.46,0,0,0-.65,0L10.74,114.57a5.15,5.15,0,0,1-8.45-1.76A33.25,33.25,0,0,1,42.1,68.63L68.64,42.09A33.22,33.22,0,0,1,112.8,2.3a5.15,5.15,0,0,1,1.77,8.44L100.34,25a.47.47,0,0,0-.14.33.45.45,0,0,0,.14.33l7.94,7.94a.45.45,0,0,0,.66,0l14.23-14.23a5.15,5.15,0,0,1,8.44,1.77,33.24,33.24,0,0,1-39.8,44.17L65.26,91.83a33.22,33.22,0,0,1-32,42.09Zm-7.95-44a10.7,10.7,0,0,1,7.61,3.15l8,8a10.78,10.78,0,0,1,0,15.23l-7.38,7.38a22.93,22.93,0,0,0,21.1-31.32,5.14,5.14,0,0,1,1.16-5.51l31-31a5.14,5.14,0,0,1,5.52-1.15A22.94,22.94,0,0,0,123.6,33.49l-7.37,7.37a10.76,10.76,0,0,1-15.23,0l-8-8a10.78,10.78,0,0,1,0-15.23l7.38-7.37a22.92,22.92,0,0,0-21.1,31.32,5.15,5.15,0,0,1-1.16,5.51l-31,31a5.14,5.14,0,0,1-5.52,1.16,22.93,22.93,0,0,0-31.31,21.11l7.37-7.38A10.73,10.73,0,0,1,25.3,89.9Z"/></g></g></svg>