<svg xmlns="http://www.w3.org/2000/svg" viewBox="0 0 118.97 122.01"><defs><style>.cls-1{fill:red;}</style></defs><title>Asset 7</title><g id="Layer_2" data-name="Layer 2"><g id="Layer_1-2" data-name="Layer 1"><path class="cls-1" d="M59.47,30.4A30.61,30.61,0,1,0,90.08,61,30.62,30.62,0,0,0,59.47,30.4Zm0,51A20.44,20.44,0,1,1,79.92,61,20.43,20.43,0,0,1,59.47,81.44Z"/><path class="cls-1" d="M116,71.71l-9.58-7.5c.07-1,.12-2.07.12-3.2a27.57,27.57,0,0,0-.12-3.21L116,50.29a7.92,7.92,0,0,0,1.91-10.17L106.73,20.87a7.92,7.92,0,0,0-9.57-3.51H97L85.69,21.91a47.42,47.42,0,0,0-5.52-3.2L78.44,6.8A7.82,7.82,0,0,0,70.66,0H48.29a7.81,7.81,0,0,0-7.78,6.71L38.79,18.77A47.71,47.71,0,0,0,33.3,22L21.86,17.4a7.81,7.81,0,0,0-9.68,3.42L1.08,40.14A7.89,7.89,0,0,0,3,50.31l9.58,7.49A25.64,25.64,0,0,0,12.44,61a27.43,27.43,0,0,0,.13,3.2L3,71.72a7.9,7.9,0,0,0-2,10v.12l11.12,19.24a7.91,7.91,0,0,0,9.61,3.57h.15l11.33-4.55a45.21,45.21,0,0,0,5.51,3.21l1.72,12A7.81,7.81,0,0,0,48.29,122H70.66a7.8,7.8,0,0,0,7.78-6.71l1.73-12.06a47.16,47.16,0,0,0,5.5-3.2l11.44,4.57a7.85,7.85,0,0,0,9.69-3.45l11.13-19.44A7.88,7.88,0,0,0,116,71.71ZM98.87,94.4l-12-4.83a5.07,5.07,0,0,0-4.94.64,37.54,37.54,0,0,1-8.33,4.85,5.08,5.08,0,0,0-3.1,4l-1.82,12.82H50.3L48.46,99a5.08,5.08,0,0,0-3.1-4,35.77,35.77,0,0,1-8.29-4.82,5.07,5.07,0,0,0-5-.69l-12,4.85L10.85,78.47l10.17-8a5.06,5.06,0,0,0,1.9-4.64A39.2,39.2,0,0,1,22.61,61,37.57,37.57,0,0,1,23,56.15a5.09,5.09,0,0,0-1.9-4.64l-10.17-8,9.17-15.91,12,4.83A5.07,5.07,0,0,0,37,31.77a37.89,37.89,0,0,1,8.33-4.84,5.08,5.08,0,0,0,3.1-4l1.83-12.78H68.65L70.48,23a5.11,5.11,0,0,0,3.11,4,35.64,35.64,0,0,1,8.3,4.81,5.07,5.07,0,0,0,5,.69l12-4.84,9.2,15.92-10.17,8A5.08,5.08,0,0,0,96,56.16,35.82,35.82,0,0,1,96.32,61,37.54,37.54,0,0,1,96,65.86a5.08,5.08,0,0,0,1.9,4.64l10.17,8Z"/></g></g></svg>