<svg xmlns="http://www.w3.org/2000/svg" viewBox="0 0 3840 208.28"><defs><style>.cls-1{fill:#d9f4ff;}</style></defs><title>Asset 1</title><g id="Layer_2" data-name="Layer 2"><g id="Layer_1-2" data-name="Layer 1"><polyline class="cls-1" points="3840 81.28 3840 208.28 3840 195.28 1920 195.28 1920 118.28 1920 118.73 2154.39 21.54 2374.46 139.43 2553.62 93.67 2592.11 110.31 2901.84 0 3152.13 110.31 3246.11 70.13 3460.56 143.51 3682.55 30.91"/><polyline class="cls-1" points="0 81.28 0 208.28 0 195.28 1920 195.28 1920 118.28 1920 118.73 1685.61 21.54 1465.54 139.43 1286.38 93.67 1247.89 110.31 938.15 0 687.87 110.31 593.88 70.13 379.44 143.51 157.45 30.91"/></g></g></svg>